<svg xmlns="http://www.w3.org/2000/svg" viewBox="0 0 512 512">
  <rect width="512" height="512" fill="#080808" rx="80"/>
  <path d="M120 140 L120 300 Q120 420 256 460 Q392 420 392 300 L392 140 Z" fill="#0d3d24" stroke="#c9a84c" stroke-width="8"/>
  <path d="M256 60 L280 110 L320 80 L305 130 L207 130 L192 80 L232 110 Z" fill="#c9a84c"/>
  <ellipse cx="210" cy="230" rx="40" ry="52" fill="none" stroke="#c9a84c" stroke-width="8" transform="rotate(-35 210 230)"/>
  <line x1="210" y1="275" x2="240" y2="340" stroke="#c9a84c" stroke-width="8" stroke-linecap="round"/>
  <ellipse cx="302" cy="230" rx="40" ry="52" fill="none" stroke="#c9a84c" stroke-width="8" transform="rotate(35 302 230)"/>
  <line x1="302" y1="275" x2="272" y2="340" stroke="#c9a84c" stroke-width="8" stroke-linecap="round"/>
  <ellipse cx="256" cy="355" rx="22" ry="15" fill="#c9a84c"/>
  <path d="M234 348 Q256 318 278 348" fill="none" stroke="#c9a84c" stroke-width="5"/>
  <text x="256" y="420" text-anchor="middle" fill="#c9a84c" font-size="42" font-weight="700" font-family="serif" letter-spacing="6">EBS</text>
  <line x1="160" y1="390" x2="352" y2="390" stroke="#c9a84c" stroke-width="2" opacity="0.5"/>
</svg>
